<svg id="desktop-device" xmlns="http://www.w3.org/2000/svg" width="17.87" height="15.488" viewBox="0 0 17.87 15.488">
  <path id="Контур_5" data-name="Контур 5" d="M17.433,36.981a1.434,1.434,0,0,0-1.052-.438H1.489a1.435,1.435,0,0,0-1.052.438A1.434,1.434,0,0,0,0,38.032V48.159a1.434,1.434,0,0,0,.437,1.052,1.434,1.434,0,0,0,1.052.437H6.552a1.947,1.947,0,0,1-.149.726,6.585,6.585,0,0,1-.3.651,1.029,1.029,0,0,0-.149.409.6.6,0,0,0,.6.6h4.765a.6.6,0,0,0,.6-.6,1.065,1.065,0,0,0-.149-.4,6.83,6.83,0,0,1-.3-.661,1.962,1.962,0,0,1-.149-.721h5.063a1.493,1.493,0,0,0,1.489-1.489V38.032A1.433,1.433,0,0,0,17.433,36.981Zm-.754,8.8a.3.3,0,0,1-.3.3H1.489a.3.3,0,0,1-.3-.3V38.032a.3.3,0,0,1,.3-.3H16.381a.3.3,0,0,1,.3.3v7.744Z" transform="translate(0 -36.543)" fill="#fff"/>
</svg>
