<svg id="phone-device" xmlns="http://www.w3.org/2000/svg" width="8.779" height="15.503" viewBox="0 0 8.779 15.503">
  <path id="Контур_4" data-name="Контур 4" d="M13.6,0H7.079A1.128,1.128,0,0,0,5.951,1.129V14.375A1.128,1.128,0,0,0,7.079,15.5H13.6a1.128,1.128,0,0,0,1.128-1.128V1.129A1.129,1.129,0,0,0,13.6,0ZM8.731.686h3.22c.081,0,.147.121.147.272s-.066.272-.147.272H8.731c-.082,0-.147-.122-.147-.272S8.649.686,8.731.686Zm1.61,13.7a.72.72,0,1,1,.719-.721A.721.721,0,0,1,10.341,14.388Zm3.544-2.468H6.8V1.906h7.088V11.92Z" transform="translate(-5.951)" fill="#fff"/>
</svg>
